<?xml version="1.0" standalone="no"?><svg xmlns="http://www.w3.org/2000/svg" viewBox="0 0 1440 320"><path fill="#111214" fill-opacity="1" d="M0,128L30,133.3C60,139,120,149,180,144C240,139,300,117,360,106.7C420,96,480,96,540,117.3C600,139,660,181,720,181.3C780,181,840,139,900,106.7C960,75,1020,53,1080,37.3C1140,21,1200,11,1260,26.7C1320,43,1380,85,1410,106.7L1440,128L1440,0L1410,0C1380,0,1320,0,1260,0C1200,0,1140,0,1080,0C1020,0,960,0,900,0C840,0,780,0,720,0C660,0,600,0,540,0C480,0,420,0,360,0C300,0,240,0,180,0C120,0,60,0,30,0L0,0Z"></path></svg>